# xmcd CD database file
#
# Track frame offsets:
#	183
#	11230
#	23813
#	39985
#	53350
#	68948
#	82880
#	101365
#	115648
#	130448
#	138520
#	158388
#
# Disc length: 2250 seconds
#
# Revision: 0
# Processed by: cddbd v1.5.2PL0 Copyright (c) Steve Scherf et al.
# Submitted via: CDex 1.60beta1
#
DISCID=8a08c80c
DTITLE=LOUIS ARMSTRONG - GREATEST JAZZ
DYEAR=1992
DGENRE=Jazz
TTITLE0=HELLO DOLLY
TTITLE1=CABARET
TTITLE2=STARDUST
TTITLE3=ALL OF ME
TTITLE4=LA VIE EN ROSE
TTITLE5=Ｃ’ＥＣＴ SI BON
TTITLE6=AIN'T MISBEHAVIN'
TTITLE7=ONLY YOU
TTITLE8=THE GIPSY
TTITLE9=ST.JAMES INFIRMARY
TTITLE10=When the Saints Go Marchin' in
TTITLE11=WHAT A WONDERFUL　WORLD
EXTD=YEAR: 1992
EXTT0=
EXTT1=
EXTT2=
EXTT3=
EXTT4=
EXTT5=
EXTT6=
EXTT7=
EXTT8=
EXTT9=
EXTT10=
EXTT11=
PLAYORDER=
